grf
version=1
nRows=14
nColumns=37
inDegrees=no
endheader
time	ground_force_1_vx	ground_force_1_vy	ground_force_1_vz	ground_force_1_px	ground_force_1_py	ground_force_1_pz	ground_moment_1_mx	ground_moment_1_my	ground_moment_1_mz	ground_force_2_vx	ground_force_2_vy	ground_force_2_vz	ground_force_2_px	ground_force_2_py	ground_force_2_pz	ground_moment_2_mx	ground_moment_2_my	ground_moment_2_mz	ground_force_3_vx	ground_force_3_vy	ground_force_3_vz	ground_force_3_px	ground_force_3_py	ground_force_3_pz	ground_moment_3_mx	ground_moment_3_my	ground_moment_3_mz	ground_force_4_vx	ground_force_4_vy	ground_force_4_vz	ground_force_4_px	ground_force_4_py	ground_force_4_pz	ground_moment_4_mx	ground_moment_4_my	ground_moment_4_mz
      5.65000000	      0.00000000	     -0.00000000	      0.00000000	      0.00000000	      0.00000000	      0.00000000	      0.00000000	      0.00000000	      0.00000000	      6.62965345	     38.21387100	   -305.44509888	   -394.26752251	  -1205.47618796	      0.00000000	      0.00000000	      0.00000000	   1416.71437826	     17.22919263	    -44.76527937	   -331.96719360	   -428.39526635	   -740.46480253	      0.00000000	      0.00000000	      0.00000000	    466.40724576	      0.00000000	     -0.00000000	      0.00000000	      0.00000000	      0.00000000	      0.00000000	      0.00000000	      0.00000000	      0.00000000
      5.66000000	      0.00000000	     -0.00000000	      0.00000000	      0.00000000	      0.00000000	      0.00000000	      0.00000000	      0.00000000	      0.00000000	      6.02398300	     40.01955414	   -311.39297485	   -396.60552945	  -1204.54958978	      0.00000000	      0.00000000	      0.00000000	   1273.47001720	     17.67238404	    -46.21110308	   -340.66213989	   -429.33523532	   -740.50418526	      0.00000000	     -0.00000000	     -0.00000000	    460.85016899	      0.00000000	     -0.00000000	      0.00000000	      0.00000000	      0.00000000	      0.00000000	      0.00000000	      0.00000000	      0.00000000
      5.67000000	      0.00000000	     -0.00000000	      0.00000000	      0.00000000	      0.00000000	      0.00000000	      0.00000000	      0.00000000	      0.00000000	      6.04796886	     41.85880280	   -315.03649902	   -399.09303199	  -1204.26485685	      0.00000000	      0.00000000	     -0.00000000	   1255.78957786	     18.73198286	    -47.35437557	   -349.92333984	   -430.70752678	   -739.14142162	      0.00000000	      0.00000000	      0.00000000	    379.80093957	      0.00000000	     -0.00000000	      0.00000000	      0.00000000	      0.00000000	      0.00000000	      0.00000000	      0.00000000	      0.00000000
      5.68000000	      0.00000000	     -0.00000000	      0.00000000	      0.00000000	      0.00000000	      0.00000000	      0.00000000	      0.00000000	      0.00000000	      6.63384056	     43.83793259	   -320.75875854	   -402.32067880	  -1204.31387492	      0.00000000	      0.00000000	      0.00000000	   1300.44702255	     20.50626330	    -48.59094418	   -357.54803467	   -431.72478707	   -739.37188129	      0.00000000	     -0.00000000	      0.00000000	    320.09922797	      0.00000000	     -0.00000000	      0.00000000	      0.00000000	      0.00000000	      0.00000000	      0.00000000	      0.00000000	      0.00000000
      5.69000000	      0.00000000	     -0.00000000	      0.00000000	      0.00000000	      0.00000000	      0.00000000	      0.00000000	      0.00000000	      0.00000000	      7.39016438	     45.89122009	   -328.52731323	   -403.29401813	  -1204.11824611	      0.00000000	     -0.00000000	      0.00000000	   1264.47536834	     22.35894526	    -50.36126523	   -365.15692139	   -432.65119350	   -739.69293031	      0.00000000	      0.00000000	      0.00000000	    423.35121423	      0.00000000	     -0.00000000	      0.00000000	      0.00000000	      0.00000000	      0.00000000	      0.00000000	      0.00000000	      0.00000000
      5.70000000	      0.00000000	     -0.00000000	      0.00000000	      0.00000000	      0.00000000	      0.00000000	      0.00000000	      0.00000000	      0.00000000	      7.40447235	     47.25645828	   -336.63739014	   -405.73554841	  -1204.61604521	      0.00000000	      0.00000000	      0.00000000	   1141.33689645	     22.93346330	    -52.18397341	   -374.41601562	   -433.26308593	   -738.56276058	      0.00000000	      0.00000000	     -0.00000000	    691.17246807	      0.00000000	     -0.00000000	      0.00000000	      0.00000000	      0.00000000	      0.00000000	      0.00000000	      0.00000000	      0.00000000
      5.71000000	      0.00000000	     -0.00000000	      0.00000000	      0.00000000	      0.00000000	      0.00000000	      0.00000000	      0.00000000	      0.00000000	      7.72987700	     48.99541092	   -347.01443481	   -406.50081554	  -1204.41137980	      0.00000000	      0.00000000	      0.00000000	   1208.53285260	     22.51825428	    -54.49448592	   -382.25289917	   -434.59166114	   -740.50508134	      0.00000000	      0.00000000	      0.00000000	    513.06272325	      0.00000000	     -0.00000000	      0.00000000	      0.00000000	      0.00000000	      0.00000000	      0.00000000	      0.00000000	      0.00000000
      5.72000000	      0.00000000	     -0.00000000	      0.00000000	      0.00000000	      0.00000000	      0.00000000	      0.00000000	      0.00000000	      0.00000000	      8.32558918	     49.57099533	   -356.35858154	   -409.07615158	  -1204.40515218	      0.00000000	      0.00000000	      0.00000000	   1231.50285597	     22.45816691	    -56.44019895	   -391.52230835	   -434.38399060	   -739.03725803	      0.00000000	      0.00000000	      0.00000000	    668.75888909	      0.00000000	     -0.00000000	      0.00000000	      0.00000000	      0.00000000	      0.00000000	      0.00000000	      0.00000000	      0.00000000
      5.73000000	      0.00000000	     -0.00000000	      0.00000000	      0.00000000	      0.00000000	      0.00000000	      0.00000000	      0.00000000	      0.00000000	      8.25106049	     50.89346313	   -365.13040161	   -409.97165921	  -1204.59909326	      0.00000000	      0.00000000	      0.00000000	   1322.19048082	     22.13448597	    -57.12979701	   -395.35299683	   -435.60191463	   -740.54146939	      0.00000000	     -0.00000000	     -0.00000000	    313.83355683	      0.00000000	     -0.00000000	      0.00000000	      0.00000000	      0.00000000	      0.00000000	      0.00000000	      0.00000000	      0.00000000
      5.74000000	      0.00000000	     -0.00000000	      0.00000000	      0.00000000	      0.00000000	      0.00000000	      0.00000000	      0.00000000	      0.00000000	      8.23525620	     51.84464645	   -374.08648682	   -410.43947194	  -1204.52410666	      0.00000000	      0.00000000	      0.00000000	   1362.42770548	     21.00997617	    -57.02513688	   -400.83343506	   -434.55061480	   -738.72867016	      0.00000000	      0.00000000	      0.00000000	    603.76025567	      0.00000000	     -0.00000000	      0.00000000	      0.00000000	      0.00000000	      0.00000000	      0.00000000	      0.00000000	      0.00000000
      5.75000000	      0.00000000	     -0.00000000	      0.00000000	      0.00000000	      0.00000000	      0.00000000	      0.00000000	      0.00000000	      0.00000000	      8.07304478	     53.21085358	   -380.26239014	   -412.21755897	  -1203.49648528	      0.00000000	     -0.00000000	      0.00000000	   1652.44721468	     20.37440371	    -57.32077967	   -403.91122437	   -434.88049175	   -738.65188782	      0.00000000	      0.00000000	      0.00000000	    333.82558045	      0.00000000	     -0.00000000	      0.00000000	      0.00000000	      0.00000000	      0.00000000	      0.00000000	      0.00000000	      0.00000000
      5.76000000	      0.00000000	     -0.00000000	      0.00000000	      0.00000000	      0.00000000	      0.00000000	      0.00000000	      0.00000000	      0.00000000	      8.20736694	     53.82001114	   -385.37777710	   -412.80842321	  -1202.47060083	      0.00000000	      0.00000000	      0.00000000	   1654.34388246	     19.44225576	    -57.01109865	   -403.04028320	   -435.66255627	   -741.05939076	      0.00000000	     -0.00000000	      0.00000000	    414.64898916	      0.00000000	     -0.00000000	      0.00000000	      0.00000000	      0.00000000	      0.00000000	      0.00000000	      0.00000000	      0.00000000
      5.77000000	      0.00000000	     -0.00000000	      0.00000000	      0.00000000	      0.00000000	      0.00000000	      0.00000000	      0.00000000	      0.00000000	      7.06226444	     54.85986328	   -391.85354614	   -413.25526335	  -1203.30300858	      0.00000000	      0.00000000	      0.00000000	   1543.31476304	     18.89470369	    -56.59959958	   -406.00286865	   -435.58146432	   -740.94259070	      0.00000000	      0.00000000	      0.00000000	    300.54221924	      0.00000000	     -0.00000000	      0.00000000	      0.00000000	      0.00000000	      0.00000000	      0.00000000	      0.00000000	      0.00000000
      5.78000000	      0.00000000	     -0.00000000	      0.00000000	      0.00000000	      0.00000000	      0.00000000	      0.00000000	      0.00000000	      0.00000000	      6.85431194	     55.54312897	   -399.50479126	   -412.35332439	  -1204.64842292	      0.00000000	      0.00000000	      0.00000000	   1575.12775204	     19.47217071	    -55.87797717	   -410.77752686	   -435.76633772	   -740.63248156	      0.00000000	      0.00000000	     -0.00000000	    -60.32505985	      0.00000000	     -0.00000000	      0.00000000	      0.00000000	      0.00000000	      0.00000000	      0.00000000	      0.00000000	      0.00000000
